<svg xmlns="http://www.w3.org/2000/svg" width="40" height="40"><path d="M35.313 0H4.688A4.693 4.693 0 000 4.688v30.624A4.693 4.693 0 004.688 40h30.624A4.693 4.693 0 0040 35.312V4.687A4.693 4.693 0 0035.312 0zM4.688 3.125h30.624c.862 0 1.563.7 1.563 1.563v22.946l-5.318-5.318a4.693 4.693 0 00-6.63 0l-1.724 1.724-4.85-4.85a4.694 4.694 0 00-6.629 0l-8.599 8.6V4.688c0-.862.7-1.563 1.563-1.563zm30.624 33.75H4.687c-.861 0-1.562-.7-1.562-1.563V32.21l10.81-10.81a1.564 1.564 0 012.209 0l7.06 7.06 3.933-3.935c.61-.609 1.6-.609 2.21 0l7.528 7.529v3.258c0 .862-.7 1.563-1.563 1.563zm-10-21.25A4.693 4.693 0 0030 10.937a4.693 4.693 0 00-4.688-4.687 4.693 4.693 0 00-4.687 4.688 4.693 4.693 0 004.688 4.687zm0-6.25a1.564 1.564 0 11-1.562 1.562c0-.861.7-1.562 1.563-1.562z" fill="#CCC" fill-rule="nonzero"/></svg>